<svg width="48" height="48" viewBox="0 0 48 48" fill="none" xmlns="http://www.w3.org/2000/svg">
<path d="M15.3115 27.9949C13.3751 27.9949 11.8053 26.4251 11.8053 24.4887V24.1829C11.8053 23.698 12.1163 23.2703 12.5697 23.0985C14.4586 22.3826 15.8253 21.5374 16.6699 20.5629C17.6367 19.4492 18.1201 18.2622 18.1201 17.0017C18.1201 16.145 17.9366 15.5025 17.5694 15.0742C17.2145 14.6336 16.7311 14.4133 16.1192 14.4133C15.5977 14.4133 15.1711 14.5448 14.8396 14.8079C13.6227 15.7732 12.7123 17.3872 11.159 17.3872H8.1562C6.6029 17.3872 5.28808 16.0856 5.84724 14.6364C6.04009 14.1366 6.28833 13.6523 6.59198 13.1834C7.43639 11.8984 8.67855 10.8643 10.3184 10.0811C11.9706 9.29786 14.0021 8.90625 16.4129 8.90625C18.7381 8.90625 20.7268 9.27339 22.3789 10.0077C24.0311 10.7297 25.2977 11.7332 26.1788 13.0182C27.0722 14.291 27.5189 15.7473 27.5189 17.3872C27.5189 19.3575 26.8336 21.0524 25.4629 22.472C24.1045 23.8794 21.8894 25.0787 18.8177 26.07C18.8177 27.1331 17.9559 27.9949 16.8928 27.9949H15.3115ZM15.3115 39.1585C13.7573 39.1585 12.509 38.7363 11.5667 37.8918C10.6244 37.0352 10.1532 35.8971 10.1532 34.4775C10.1532 33.0701 10.6183 31.9564 11.5483 31.1365C12.4784 30.3043 13.7328 29.8882 15.3115 29.8882C16.8902 29.8882 18.1446 30.3043 19.0747 31.1365C20.0048 31.9564 20.4698 33.0701 20.4698 34.4775C20.4698 35.8971 19.9987 37.0352 19.0563 37.8918C18.1262 38.7363 16.878 39.1585 15.3115 39.1585Z" fill="#4AADBE"/>
<path d="M35.5973 28.0315C33.557 28.0422 31.8025 26.5889 31.4331 24.5823L30.2899 18.3719C30.0951 17.3138 29.9971 16.2401 29.9971 15.1641V14.5011C29.9971 11.7052 32.2636 9.4386 35.0596 9.4386H36.0956C38.8915 9.4386 41.1581 11.7052 41.1581 14.5011V15.1589C41.1581 16.2383 41.0595 17.3154 40.8634 18.3768L39.7169 24.5847C39.3496 26.5739 37.62 28.0209 35.5973 28.0315ZM35.5776 39.1585C34.0234 39.1585 32.7751 38.7363 31.8328 37.8918C30.8904 37.0474 30.4193 35.9093 30.4193 34.4775C30.4193 33.0579 30.8904 31.9381 31.8328 31.1181C32.7751 30.2982 34.0234 29.8882 35.5776 29.8882C37.144 29.8882 38.3923 30.2982 39.3224 31.1181C40.2647 31.9381 40.7359 33.0579 40.7359 34.4775C40.7359 35.9093 40.2647 37.0474 39.3224 37.8918C38.3801 38.7363 37.1318 39.1585 35.5776 39.1585Z" fill="#4AADBE"/>
</svg>
