<svg width="512" height="512" viewBox="0 0 512 512" fill="none" xmlns="http://www.w3.org/2000/svg">
<path d="M163.323 298.612C142.668 298.612 125.924 281.868 125.924 261.213V257.951C125.924 252.779 129.241 248.217 134.077 246.384C154.225 238.748 168.804 229.733 177.813 219.338C188.126 207.459 193.282 194.796 193.282 181.351C193.282 172.213 191.324 165.36 187.408 160.791C183.622 156.092 178.466 153.742 171.939 153.742C166.376 153.742 161.826 155.145 158.289 157.951C145.309 168.247 135.598 185.463 119.029 185.463H86.9999C70.4314 185.463 56.4067 171.58 62.371 156.122C64.428 150.791 67.076 145.624 70.3148 140.623C79.322 126.917 92.5716 115.886 110.064 107.532C127.686 99.1772 149.356 95 175.072 95C199.874 95 221.086 98.9161 238.709 106.748C256.332 114.45 269.842 125.154 279.241 138.861C288.771 152.437 293.535 167.971 293.535 185.463C293.535 206.48 286.225 224.559 271.605 239.702C257.115 254.713 233.488 267.506 200.723 278.08C200.723 289.42 191.53 298.612 180.19 298.612H163.323ZM163.323 417.69C146.745 417.69 133.43 413.187 123.379 404.18C113.327 395.042 108.301 382.902 108.301 367.76C108.301 352.748 113.262 340.869 123.183 332.123C133.104 323.246 146.484 318.808 163.323 318.808C180.163 318.808 193.543 323.246 203.464 332.123C213.385 340.869 218.345 352.748 218.345 367.76C218.345 382.902 213.319 395.042 203.268 404.18C193.347 413.187 180.032 417.69 163.323 417.69Z" fill="#4AADBE"/>
<path d="M379.705 299.003C357.942 299.117 339.227 283.615 335.287 262.211L323.092 195.967C321.014 184.68 319.969 173.227 319.969 161.751V154.678C319.969 124.855 344.146 100.678 373.969 100.678H385.02C414.843 100.678 439.02 124.855 439.02 154.678V161.695C439.02 173.209 437.968 184.698 435.877 196.02L423.648 262.237C419.729 283.454 401.281 298.89 379.705 299.003ZM379.495 417.69C362.916 417.69 349.601 413.187 339.55 404.18C329.498 395.173 324.473 383.033 324.473 367.76C324.473 352.617 329.498 340.673 339.55 331.927C349.601 323.181 362.916 318.808 379.495 318.808C396.203 318.808 409.518 323.181 419.439 331.927C429.491 340.673 434.516 352.617 434.516 367.76C434.516 383.033 429.491 395.173 419.439 404.18C409.388 413.187 396.073 417.69 379.495 417.69Z" fill="#4AADBE"/>
</svg>
